<?xml version="1.0" encoding="UTF-8" standalone="no"?>
<!DOCTYPE svg PUBLIC "-//W3C//DTD SVG 1.1//EN"
 "http://www.w3.org/Graphics/SVG/1.1/DTD/svg11.dtd">
<!-- Generated by graphviz version 14.1.2 (20260124.0452)
 -->
<!-- Title: DragenAlignPAWorkflow Pages: 1 -->
<svg width="1352pt" height="353pt"
 viewBox="0.00 0.00 1352.00 353.00" xmlns="http://www.w3.org/2000/svg" xmlns:xlink="http://www.w3.org/1999/xlink">
<g id="graph0" class="graph" transform="scale(1 1) rotate(0) translate(4 349.4)">
<title>DragenAlignPAWorkflow</title>
<polygon fill="#f9f9f9" stroke="none" points="-4,4 -4,-349.4 1348.4,-349.4 1348.4,4 -4,4"/>
<text xml:space="preserve" text-anchor="middle" x="672.2" y="-318.6" font-family="Times,serif" font-size="24.00">Dragen Alignment</text>
<!-- UploadDataToIca -->
<g id="node1" class="node">
<title>UploadDataToIca</title>
<polygon fill="#66c2a5" stroke="#444444" points="372.4,-215.4 214,-215.4 214,-165 372.4,-165 372.4,-215.4"/>
<text xml:space="preserve" text-anchor="middle" x="293.2" y="-191.55" font-family="Helvetica,sans-Serif" font-size="12.00">UploadDataToIca</text>
<text xml:space="preserve" text-anchor="middle" x="293.2" y="-178.8" font-family="Helvetica,sans-Serif" font-size="12.00">(CRAM, SG)</text>
</g>
<!-- ManageDragenPipeline -->
<g id="node9" class="node">
<title>ManageDragenPipeline</title>
<polygon fill="#b3e2cd" stroke="#444444" points="566.8,-162.4 408.4,-162.4 408.4,-112 566.8,-112 566.8,-162.4"/>
<text xml:space="preserve" text-anchor="middle" x="487.6" y="-144.92" font-family="Helvetica,sans-Serif" font-size="12.00">ManageDragenPipeline</text>
<text xml:space="preserve" text-anchor="middle" x="487.6" y="-132.17" font-family="Helvetica,sans-Serif" font-size="12.00">(C)</text>
<text xml:space="preserve" text-anchor="middle" x="487.6" y="-119.42" font-family="Helvetica,sans-Serif" font-size="12.00">[ICA monitor]</text>
</g>
<!-- UploadDataToIca&#45;&gt;ManageDragenPipeline -->
<g id="edge8" class="edge">
<title>UploadDataToIca&#45;&gt;ManageDragenPipeline</title>
<path fill="none" stroke="#888888" stroke-width="2" d="M372.87,-184.7C416.34,-184.7 461.4,-184.7 461.4,-184.7 461.4,-184.7 461.4,-173.92 461.4,-173.92"/>
<polygon fill="#888888" stroke="#888888" stroke-width="2" points="464.2,-173.92 461.4,-165.92 458.6,-173.92 464.2,-173.92"/>
</g>
<!-- FastqIntakeQc -->
<g id="node2" class="node">
<title>FastqIntakeQc</title>
<polygon fill="#fc8d62" stroke="#444444" points="372.4,-296.4 214,-296.4 214,-246 372.4,-246 372.4,-296.4"/>
<text xml:space="preserve" text-anchor="middle" x="293.2" y="-272.55" font-family="Helvetica,sans-Serif" font-size="12.00">FastqIntakeQc</text>
<text xml:space="preserve" text-anchor="middle" x="293.2" y="-259.8" font-family="Helvetica,sans-Serif" font-size="12.00">(FASTQ, C)</text>
</g>
<!-- DownloadMd5Results -->
<g id="node3" class="node">
<title>DownloadMd5Results</title>
<polygon fill="#fc8d62" stroke="#444444" points="566.8,-303.4 408.4,-303.4 408.4,-253 566.8,-253 566.8,-303.4"/>
<text xml:space="preserve" text-anchor="middle" x="487.6" y="-279.55" font-family="Helvetica,sans-Serif" font-size="12.00">DownloadMd5Results</text>
<text xml:space="preserve" text-anchor="middle" x="487.6" y="-266.8" font-family="Helvetica,sans-Serif" font-size="12.00">(FASTQ, C)</text>
</g>
<!-- FastqIntakeQc&#45;&gt;DownloadMd5Results -->
<g id="edge3" class="edge">
<title>FastqIntakeQc&#45;&gt;DownloadMd5Results</title>
<path fill="none" stroke="#888888" stroke-width="2" d="M372.83,-274.7C372.83,-274.7 397.07,-274.7 397.07,-274.7"/>
<polygon fill="#888888" stroke="#888888" stroke-width="2" points="397.07,-277.5 405.07,-274.7 397.07,-271.9 397.07,-277.5"/>
</g>
<!-- ValidateMd5Sums -->
<g id="node4" class="node">
<title>ValidateMd5Sums</title>
<polygon fill="#fc8d62" stroke="#444444" points="761.2,-310.4 602.8,-310.4 602.8,-260 761.2,-260 761.2,-310.4"/>
<text xml:space="preserve" text-anchor="middle" x="682" y="-286.55" font-family="Helvetica,sans-Serif" font-size="12.00">ValidateMd5Sums</text>
<text xml:space="preserve" text-anchor="middle" x="682" y="-273.8" font-family="Helvetica,sans-Serif" font-size="12.00">(FASTQ, C)</text>
</g>
<!-- DownloadMd5Results&#45;&gt;ValidateMd5Sums -->
<g id="edge4" class="edge">
<title>DownloadMd5Results&#45;&gt;ValidateMd5Sums</title>
<path fill="none" stroke="#888888" stroke-width="2" d="M567.23,-281.7C567.23,-281.7 591.47,-281.7 591.47,-281.7"/>
<polygon fill="#888888" stroke="#888888" stroke-width="2" points="591.47,-284.5 599.47,-281.7 591.47,-278.9 591.47,-284.5"/>
</g>
<!-- MakeFastqFileList -->
<g id="node5" class="node">
<title>MakeFastqFileList</title>
<polygon fill="#fc8d62" stroke="#444444" points="955.6,-310.4 797.2,-310.4 797.2,-260 955.6,-260 955.6,-310.4"/>
<text xml:space="preserve" text-anchor="middle" x="876.4" y="-286.55" font-family="Helvetica,sans-Serif" font-size="12.00">MakeFastqFileList</text>
<text xml:space="preserve" text-anchor="middle" x="876.4" y="-273.8" font-family="Helvetica,sans-Serif" font-size="12.00">(FASTQ, C)</text>
</g>
<!-- ValidateMd5Sums&#45;&gt;MakeFastqFileList -->
<g id="edge5" class="edge">
<title>ValidateMd5Sums&#45;&gt;MakeFastqFileList</title>
<path fill="none" stroke="#888888" stroke-width="2" d="M761.63,-285.2C761.63,-285.2 785.87,-285.2 785.87,-285.2"/>
<polygon fill="#888888" stroke="#888888" stroke-width="2" points="785.87,-288 793.87,-285.2 785.87,-282.4 785.87,-288"/>
</g>
<!-- UploadFastqFileList -->
<g id="node6" class="node">
<title>UploadFastqFileList</title>
<polygon fill="#8da0cb" stroke="#444444" points="1150,-283.4 991.6,-283.4 991.6,-233 1150,-233 1150,-283.4"/>
<text xml:space="preserve" text-anchor="middle" x="1070.8" y="-259.55" font-family="Helvetica,sans-Serif" font-size="12.00">UploadFastqFileList</text>
<text xml:space="preserve" text-anchor="middle" x="1070.8" y="-246.8" font-family="Helvetica,sans-Serif" font-size="12.00">(C)</text>
</g>
<!-- MakeFastqFileList&#45;&gt;UploadFastqFileList -->
<g id="edge6" class="edge">
<title>MakeFastqFileList&#45;&gt;UploadFastqFileList</title>
<path fill="none" stroke="#888888" stroke-width="2" d="M956.03,-271.7C956.03,-271.7 980.27,-271.7 980.27,-271.7"/>
<polygon fill="#888888" stroke="#888888" stroke-width="2" points="980.27,-274.5 988.27,-271.7 980.27,-268.9 980.27,-274.5"/>
</g>
<!-- UploadFastqFileList&#45;&gt;ManageDragenPipeline -->
<g id="edge9" class="edge">
<title>UploadFastqFileList&#45;&gt;ManageDragenPipeline</title>
<path fill="none" stroke="#888888" stroke-width="2" d="M991.38,-239.5C837.65,-239.5 514.4,-239.5 514.4,-239.5 514.4,-239.5 514.4,-173.78 514.4,-173.78"/>
<polygon fill="#888888" stroke="#888888" stroke-width="2" points="517.2,-173.78 514.4,-165.78 511.6,-173.78 517.2,-173.78"/>
</g>
<!-- DownloadMlrGvcfFromIca -->
<g id="node7" class="node">
<title>DownloadMlrGvcfFromIca</title>
<polygon fill="#8da0cb" stroke="#444444" points="955.6,-83.4 797.2,-83.4 797.2,-33 955.6,-33 955.6,-83.4"/>
<text xml:space="preserve" text-anchor="middle" x="876.4" y="-59.55" font-family="Helvetica,sans-Serif" font-size="12.00">DownloadMlrGvcfFromIca</text>
<text xml:space="preserve" text-anchor="middle" x="876.4" y="-46.8" font-family="Helvetica,sans-Serif" font-size="12.00">(SG)</text>
</g>
<!-- DownloadDataFromIca -->
<g id="node13" class="node">
<title>DownloadDataFromIca</title>
<polygon fill="#b3e2cd" stroke="#444444" points="1150,-83.4 991.6,-83.4 991.6,-33 1150,-33 1150,-83.4"/>
<text xml:space="preserve" text-anchor="middle" x="1070.8" y="-65.92" font-family="Helvetica,sans-Serif" font-size="12.00">DownloadDataFromIca</text>
<text xml:space="preserve" text-anchor="middle" x="1070.8" y="-53.18" font-family="Helvetica,sans-Serif" font-size="12.00">(SG)</text>
<text xml:space="preserve" text-anchor="middle" x="1070.8" y="-40.43" font-family="Helvetica,sans-Serif" font-size="12.00">[ICA monitor]</text>
</g>
<!-- DownloadMlrGvcfFromIca&#45;&gt;DownloadDataFromIca -->
<g id="edge18" class="edge">
<title>DownloadMlrGvcfFromIca&#45;&gt;DownloadDataFromIca</title>
<path fill="none" stroke="#888888" stroke-width="2" d="M956.03,-58.2C956.03,-58.2 980.27,-58.2 980.27,-58.2"/>
<polygon fill="#888888" stroke="#888888" stroke-width="2" points="980.27,-61 988.27,-58.2 980.27,-55.4 980.27,-61"/>
</g>
<!-- PrepareIcaForDragenAnalysis -->
<g id="node8" class="node">
<title>PrepareIcaForDragenAnalysis</title>
<polygon fill="#ffffb3" stroke="#444444" stroke-width="3" points="178,-215.4 0,-215.4 0,-165 178,-165 178,-215.4"/>
<text xml:space="preserve" text-anchor="middle" x="89" y="-197.92" font-family="Helvetica,sans-Serif" font-size="12.00">PrepareIcaForDragenAnalysis</text>
<text xml:space="preserve" text-anchor="middle" x="89" y="-185.17" font-family="Helvetica,sans-Serif" font-size="12.00">(C)</text>
<text xml:space="preserve" text-anchor="middle" x="89" y="-172.42" font-family="Helvetica,sans-Serif" font-size="12.00">START</text>
</g>
<!-- PrepareIcaForDragenAnalysis&#45;&gt;UploadDataToIca -->
<g id="edge2" class="edge">
<title>PrepareIcaForDragenAnalysis&#45;&gt;UploadDataToIca</title>
<path fill="none" stroke="#888888" stroke-width="2" d="M179.46,-190.2C179.46,-190.2 202.68,-190.2 202.68,-190.2"/>
<polygon fill="#888888" stroke="#888888" stroke-width="2" points="202.68,-193 210.68,-190.2 202.68,-187.4 202.68,-193"/>
</g>
<!-- PrepareIcaForDragenAnalysis&#45;&gt;FastqIntakeQc -->
<g id="edge1" class="edge">
<title>PrepareIcaForDragenAnalysis&#45;&gt;FastqIntakeQc</title>
<path fill="none" stroke="#888888" stroke-width="2" d="M89.4,-216.72C89.4,-240.35 89.4,-271.2 89.4,-271.2 89.4,-271.2 202.5,-271.2 202.5,-271.2"/>
<polygon fill="#888888" stroke="#888888" stroke-width="2" points="202.5,-274 210.5,-271.2 202.5,-268.4 202.5,-274"/>
</g>
<!-- PrepareIcaForDragenAnalysis&#45;&gt;ManageDragenPipeline -->
<g id="edge7" class="edge">
<title>PrepareIcaForDragenAnalysis&#45;&gt;ManageDragenPipeline</title>
<path fill="none" stroke="#888888" stroke-width="2" d="M89.4,-163.7C89.4,-150.45 89.4,-137.2 89.4,-137.2 89.4,-137.2 396.95,-137.2 396.95,-137.2"/>
<polygon fill="#888888" stroke="#888888" stroke-width="2" points="396.95,-140 404.95,-137.2 396.95,-134.4 396.95,-140"/>
</g>
<!-- ManageDragenMlr -->
<g id="node10" class="node">
<title>ManageDragenMlr</title>
<polygon fill="#b3e2cd" stroke="#444444" points="761.2,-204.4 602.8,-204.4 602.8,-154 761.2,-154 761.2,-204.4"/>
<text xml:space="preserve" text-anchor="middle" x="682" y="-186.92" font-family="Helvetica,sans-Serif" font-size="12.00">ManageDragenMlr</text>
<text xml:space="preserve" text-anchor="middle" x="682" y="-174.17" font-family="Helvetica,sans-Serif" font-size="12.00">(C)</text>
<text xml:space="preserve" text-anchor="middle" x="682" y="-161.42" font-family="Helvetica,sans-Serif" font-size="12.00">[ICA monitor]</text>
</g>
<!-- ManageDragenPipeline&#45;&gt;ManageDragenMlr -->
<g id="edge10" class="edge">
<title>ManageDragenPipeline&#45;&gt;ManageDragenMlr</title>
<path fill="none" stroke="#888888" stroke-width="2" d="M567.23,-158.2C567.23,-158.2 591.47,-158.2 591.47,-158.2"/>
<polygon fill="#888888" stroke="#888888" stroke-width="2" points="591.47,-161 599.47,-158.2 591.47,-155.4 591.47,-161"/>
</g>
<!-- DownloadCramFromIca -->
<g id="node11" class="node">
<title>DownloadCramFromIca</title>
<polygon fill="#b3e2cd" stroke="#444444" points="761.2,-136.4 602.8,-136.4 602.8,-86 761.2,-86 761.2,-136.4"/>
<text xml:space="preserve" text-anchor="middle" x="682" y="-118.92" font-family="Helvetica,sans-Serif" font-size="12.00">DownloadCramFromIca</text>
<text xml:space="preserve" text-anchor="middle" x="682" y="-106.17" font-family="Helvetica,sans-Serif" font-size="12.00">(SG)</text>
<text xml:space="preserve" text-anchor="middle" x="682" y="-93.42" font-family="Helvetica,sans-Serif" font-size="12.00">[ICA monitor]</text>
</g>
<!-- ManageDragenPipeline&#45;&gt;DownloadCramFromIca -->
<g id="edge11" class="edge">
<title>ManageDragenPipeline&#45;&gt;DownloadCramFromIca</title>
<path fill="none" stroke="#888888" stroke-width="2" d="M567.23,-124.2C567.23,-124.2 591.47,-124.2 591.47,-124.2"/>
<polygon fill="#888888" stroke="#888888" stroke-width="2" points="591.47,-127 599.47,-124.2 591.47,-121.4 591.47,-127"/>
</g>
<!-- DownloadGvcfFromIca -->
<g id="node12" class="node">
<title>DownloadGvcfFromIca</title>
<polygon fill="#b3e2cd" stroke="#444444" points="761.2,-68.4 602.8,-68.4 602.8,-18 761.2,-18 761.2,-68.4"/>
<text xml:space="preserve" text-anchor="middle" x="682" y="-50.93" font-family="Helvetica,sans-Serif" font-size="12.00">DownloadGvcfFromIca</text>
<text xml:space="preserve" text-anchor="middle" x="682" y="-38.18" font-family="Helvetica,sans-Serif" font-size="12.00">(SG)</text>
<text xml:space="preserve" text-anchor="middle" x="682" y="-25.43" font-family="Helvetica,sans-Serif" font-size="12.00">[ICA monitor]</text>
</g>
<!-- ManageDragenPipeline&#45;&gt;DownloadGvcfFromIca -->
<g id="edge12" class="edge">
<title>ManageDragenPipeline&#45;&gt;DownloadGvcfFromIca</title>
<path fill="none" stroke="#888888" stroke-width="2" d="M514.4,-111.51C514.4,-83.68 514.4,-43.2 514.4,-43.2 514.4,-43.2 591.59,-43.2 591.59,-43.2"/>
<polygon fill="#888888" stroke="#888888" stroke-width="2" points="591.59,-46 599.59,-43.2 591.59,-40.4 591.59,-46"/>
</g>
<!-- ManageDragenPipeline&#45;&gt;DownloadDataFromIca -->
<g id="edge15" class="edge">
<title>ManageDragenPipeline&#45;&gt;DownloadDataFromIca</title>
<path fill="none" stroke="#888888" stroke-width="2" d="M461.4,-111.72C461.4,-72.04 461.4,0 461.4,0 461.4,0 1044.4,0 1044.4,0 1044.4,0 1044.4,-21.48 1044.4,-21.48"/>
<polygon fill="#888888" stroke="#888888" stroke-width="2" points="1041.6,-21.48 1044.4,-29.48 1047.2,-21.48 1041.6,-21.48"/>
</g>
<!-- ManageDragenMlr&#45;&gt;DownloadMlrGvcfFromIca -->
<g id="edge14" class="edge">
<title>ManageDragenMlr&#45;&gt;DownloadMlrGvcfFromIca</title>
<path fill="none" stroke="#888888" stroke-width="2" d="M761.54,-179.2C772.12,-179.2 779.4,-179.2 779.4,-179.2 779.4,-179.2 779.4,-75.9 779.4,-75.9 779.4,-75.9 785.71,-75.9 785.71,-75.9"/>
<polygon fill="#888888" stroke="#888888" stroke-width="2" points="785.71,-78.7 793.71,-75.9 785.71,-73.1 785.71,-78.7"/>
</g>
<!-- DownloadCramFromIca&#45;&gt;DownloadDataFromIca -->
<g id="edge16" class="edge">
<title>DownloadCramFromIca&#45;&gt;DownloadDataFromIca</title>
<path fill="none" stroke="#888888" stroke-width="2" d="M761.54,-93.5C875.17,-93.5 1070.4,-93.5 1070.4,-93.5 1070.4,-93.5 1070.4,-92.54 1070.4,-92.54"/>
<polygon fill="#888888" stroke="#888888" stroke-width="2" points="1073.2,-94.88 1070.4,-86.88 1067.6,-94.88 1073.2,-94.88"/>
</g>
<!-- SomalierExtract -->
<g id="node14" class="node">
<title>SomalierExtract</title>
<polygon fill="#8da0cb" stroke="#444444" points="955.6,-151.4 797.2,-151.4 797.2,-101 955.6,-101 955.6,-151.4"/>
<text xml:space="preserve" text-anchor="middle" x="876.4" y="-127.55" font-family="Helvetica,sans-Serif" font-size="12.00">SomalierExtract</text>
<text xml:space="preserve" text-anchor="middle" x="876.4" y="-114.8" font-family="Helvetica,sans-Serif" font-size="12.00">(SG)</text>
</g>
<!-- DownloadCramFromIca&#45;&gt;SomalierExtract -->
<g id="edge19" class="edge">
<title>DownloadCramFromIca&#45;&gt;SomalierExtract</title>
<path fill="none" stroke="#888888" stroke-width="2" d="M761.63,-118.7C761.63,-118.7 785.87,-118.7 785.87,-118.7"/>
<polygon fill="#888888" stroke="#888888" stroke-width="2" points="785.87,-121.5 793.87,-118.7 785.87,-115.9 785.87,-121.5"/>
</g>
<!-- DownloadGvcfFromIca&#45;&gt;DownloadMlrGvcfFromIca -->
<g id="edge13" class="edge">
<title>DownloadGvcfFromIca&#45;&gt;DownloadMlrGvcfFromIca</title>
<path fill="none" stroke="#888888" stroke-width="2" d="M761.63,-50.7C761.63,-50.7 785.87,-50.7 785.87,-50.7"/>
<polygon fill="#888888" stroke="#888888" stroke-width="2" points="785.87,-53.5 793.87,-50.7 785.87,-47.9 785.87,-53.5"/>
</g>
<!-- DownloadGvcfFromIca&#45;&gt;DownloadDataFromIca -->
<g id="edge17" class="edge">
<title>DownloadGvcfFromIca&#45;&gt;DownloadDataFromIca</title>
<path fill="none" stroke="#888888" stroke-width="2" d="M761.6,-25.5C882.22,-25.5 1097.4,-25.5 1097.4,-25.5 1097.4,-25.5 1097.4,-26.23 1097.4,-26.23"/>
<polygon fill="#888888" stroke="#888888" stroke-width="2" points="1094.6,-21.73 1097.4,-29.73 1100.2,-21.73 1094.6,-21.73"/>
</g>
<!-- DeleteDataInIca -->
<g id="node15" class="node">
<title>DeleteDataInIca</title>
<polygon fill="#fbb4ae" stroke="#444444" stroke-width="3" points="1344.4,-117.4 1186,-117.4 1186,-67 1344.4,-67 1344.4,-117.4"/>
<text xml:space="preserve" text-anchor="middle" x="1265.2" y="-99.92" font-family="Helvetica,sans-Serif" font-size="12.00">DeleteDataInIca</text>
<text xml:space="preserve" text-anchor="middle" x="1265.2" y="-87.17" font-family="Helvetica,sans-Serif" font-size="12.00">(C)</text>
<text xml:space="preserve" text-anchor="middle" x="1265.2" y="-74.42" font-family="Helvetica,sans-Serif" font-size="12.00">END</text>
</g>
<!-- DownloadDataFromIca&#45;&gt;DeleteDataInIca -->
<g id="edge20" class="edge">
<title>DownloadDataFromIca&#45;&gt;DeleteDataInIca</title>
<path fill="none" stroke="#888888" stroke-width="2" d="M1150.43,-75.2C1150.43,-75.2 1173.72,-75.2 1173.72,-75.2"/>
<polygon fill="#888888" stroke="#888888" stroke-width="2" points="1173.72,-78 1181.72,-75.2 1173.72,-72.4 1173.72,-78"/>
</g>
<!-- SomalierExtract&#45;&gt;DeleteDataInIca -->
<g id="edge21" class="edge">
<title>SomalierExtract&#45;&gt;DeleteDataInIca</title>
<path fill="none" stroke="#888888" stroke-width="2" d="M956.02,-109.2C956.02,-109.2 1173.66,-109.2 1173.66,-109.2"/>
<polygon fill="#888888" stroke="#888888" stroke-width="2" points="1173.66,-112 1181.66,-109.2 1173.66,-106.4 1173.66,-112"/>
</g>
</g>
</svg>
