<?xml version="1.0" encoding="UTF-8" standalone="no"?>
<!DOCTYPE svg PUBLIC "-//W3C//DTD SVG 1.1//EN"
 "http://www.w3.org/Graphics/SVG/1.1/DTD/svg11.dtd">
<!-- Generated by graphviz version 14.1.2 (20260124.0452)
 -->
<!-- Title: DragenAlignPAWorkflow Pages: 1 -->
<svg width="2293pt" height="299pt"
 viewBox="0.00 0.00 2293.00 299.00" xmlns="http://www.w3.org/2000/svg" xmlns:xlink="http://www.w3.org/1999/xlink">
<g id="graph0" class="graph" transform="scale(1 1) rotate(0) translate(4 295.4)">
<title>DragenAlignPAWorkflow</title>
<polygon fill="#f9f9f9" stroke="none" points="-4,4 -4,-295.4 2288.7,-295.4 2288.7,4 -4,4"/>
<text xml:space="preserve" text-anchor="middle" x="1142.35" y="-264.6" font-family="Times,serif" font-size="24.00">Dragen Alignment</text>
<!-- PrepareIcaForDragenAnalysis -->
<g id="node1" class="node">
<title>PrepareIcaForDragenAnalysis</title>
<polygon fill="#ffffb3" stroke="#444444" stroke-width="3" points="178,-155.4 0,-155.4 0,-105 178,-105 178,-155.4"/>
<text xml:space="preserve" text-anchor="middle" x="89" y="-137.92" font-family="Helvetica,sans-Serif" font-size="12.00">PrepareIcaForDragenAnalysis</text>
<text xml:space="preserve" text-anchor="middle" x="89" y="-125.17" font-family="Helvetica,sans-Serif" font-size="12.00">(C)</text>
<text xml:space="preserve" text-anchor="middle" x="89" y="-112.42" font-family="Helvetica,sans-Serif" font-size="12.00">START</text>
</g>
<!-- FastqIntakeQc -->
<g id="node2" class="node">
<title>FastqIntakeQc</title>
<polygon fill="#fc8d62" stroke="#444444" points="386.8,-189.4 214,-189.4 214,-139 386.8,-139 386.8,-189.4"/>
<text xml:space="preserve" text-anchor="middle" x="300.4" y="-165.55" font-family="Helvetica,sans-Serif" font-size="12.00">FastqIntakeQc</text>
<text xml:space="preserve" text-anchor="middle" x="300.4" y="-152.8" font-family="Helvetica,sans-Serif" font-size="12.00">(FASTQ, C)</text>
</g>
<!-- PrepareIcaForDragenAnalysis&#45;&gt;FastqIntakeQc -->
<g id="edge1" class="edge">
<title>PrepareIcaForDragenAnalysis&#45;&gt;FastqIntakeQc</title>
<path fill="none" stroke="#888888" stroke-width="2" d="M179.41,-144.72C187.21,-145.98 195.12,-147.27 202.97,-148.54"/>
<polygon fill="#888888" stroke="#888888" stroke-width="2" points="202.28,-151.27 210.63,-149.79 203.18,-145.74 202.28,-151.27"/>
</g>
<!-- UploadDataToIca -->
<g id="node6" class="node">
<title>UploadDataToIca</title>
<polygon fill="#66c2a5" stroke="#444444" points="386.8,-121.4 214,-121.4 214,-71 386.8,-71 386.8,-121.4"/>
<text xml:space="preserve" text-anchor="middle" x="300.4" y="-97.55" font-family="Helvetica,sans-Serif" font-size="12.00">UploadDataToIca</text>
<text xml:space="preserve" text-anchor="middle" x="300.4" y="-84.8" font-family="Helvetica,sans-Serif" font-size="12.00">(CRAM, SG)</text>
</g>
<!-- PrepareIcaForDragenAnalysis&#45;&gt;UploadDataToIca -->
<g id="edge2" class="edge">
<title>PrepareIcaForDragenAnalysis&#45;&gt;UploadDataToIca</title>
<path fill="none" stroke="#888888" stroke-width="2" d="M179.41,-115.68C187.21,-114.42 195.12,-113.13 202.97,-111.86"/>
<polygon fill="#888888" stroke="#888888" stroke-width="2" points="203.18,-114.66 210.63,-110.61 202.28,-109.13 203.18,-114.66"/>
</g>
<!-- DownloadMd5Results -->
<g id="node3" class="node">
<title>DownloadMd5Results</title>
<polygon fill="#fc8d62" stroke="#444444" points="595.6,-188.4 422.8,-188.4 422.8,-138 595.6,-138 595.6,-188.4"/>
<text xml:space="preserve" text-anchor="middle" x="509.2" y="-164.55" font-family="Helvetica,sans-Serif" font-size="12.00">DownloadMd5Results</text>
<text xml:space="preserve" text-anchor="middle" x="509.2" y="-151.8" font-family="Helvetica,sans-Serif" font-size="12.00">(FASTQ, C)</text>
</g>
<!-- FastqIntakeQc&#45;&gt;DownloadMd5Results -->
<g id="edge3" class="edge">
<title>FastqIntakeQc&#45;&gt;DownloadMd5Results</title>
<path fill="none" stroke="#888888" stroke-width="2" d="M387.01,-163.79C395.03,-163.75 403.2,-163.71 411.31,-163.67"/>
<polygon fill="#888888" stroke="#888888" stroke-width="2" points="411.31,-166.47 419.3,-163.63 411.28,-160.87 411.31,-166.47"/>
</g>
<!-- ValidateMd5Sums -->
<g id="node4" class="node">
<title>ValidateMd5Sums</title>
<polygon fill="#fc8d62" stroke="#444444" points="804.4,-187.4 631.6,-187.4 631.6,-137 804.4,-137 804.4,-187.4"/>
<text xml:space="preserve" text-anchor="middle" x="718" y="-163.55" font-family="Helvetica,sans-Serif" font-size="12.00">ValidateMd5Sums</text>
<text xml:space="preserve" text-anchor="middle" x="718" y="-150.8" font-family="Helvetica,sans-Serif" font-size="12.00">(FASTQ, C)</text>
</g>
<!-- DownloadMd5Results&#45;&gt;ValidateMd5Sums -->
<g id="edge4" class="edge">
<title>DownloadMd5Results&#45;&gt;ValidateMd5Sums</title>
<path fill="none" stroke="#888888" stroke-width="2" d="M595.81,-162.79C603.83,-162.75 612,-162.71 620.11,-162.67"/>
<polygon fill="#888888" stroke="#888888" stroke-width="2" points="620.11,-165.47 628.1,-162.63 620.08,-159.87 620.11,-165.47"/>
</g>
<!-- MakeFastqFileList -->
<g id="node5" class="node">
<title>MakeFastqFileList</title>
<polygon fill="#fc8d62" stroke="#444444" points="1013.2,-185.4 840.4,-185.4 840.4,-135 1013.2,-135 1013.2,-185.4"/>
<text xml:space="preserve" text-anchor="middle" x="926.8" y="-161.55" font-family="Helvetica,sans-Serif" font-size="12.00">MakeFastqFileList</text>
<text xml:space="preserve" text-anchor="middle" x="926.8" y="-148.8" font-family="Helvetica,sans-Serif" font-size="12.00">(FASTQ, C)</text>
</g>
<!-- ValidateMd5Sums&#45;&gt;MakeFastqFileList -->
<g id="edge5" class="edge">
<title>ValidateMd5Sums&#45;&gt;MakeFastqFileList</title>
<path fill="none" stroke="#888888" stroke-width="2" d="M804.61,-161.37C812.63,-161.29 820.8,-161.22 828.91,-161.14"/>
<polygon fill="#888888" stroke="#888888" stroke-width="2" points="828.93,-163.94 836.9,-161.06 828.87,-158.34 828.93,-163.94"/>
</g>
<!-- ManageDragenPipeline -->
<g id="node7" class="node">
<title>ManageDragenPipeline</title>
<polygon fill="#b3e2cd" stroke="#444444" points="1222,-154.4 1049.2,-154.4 1049.2,-104 1222,-104 1222,-154.4"/>
<text xml:space="preserve" text-anchor="middle" x="1135.6" y="-136.92" font-family="Helvetica,sans-Serif" font-size="12.00">ManageDragenPipeline</text>
<text xml:space="preserve" text-anchor="middle" x="1135.6" y="-124.17" font-family="Helvetica,sans-Serif" font-size="12.00">(C)</text>
<text xml:space="preserve" text-anchor="middle" x="1135.6" y="-111.42" font-family="Helvetica,sans-Serif" font-size="12.00">[ICA monitor]</text>
</g>
<!-- MakeFastqFileList&#45;&gt;ManageDragenPipeline -->
<g id="edge6" class="edge">
<title>MakeFastqFileList&#45;&gt;ManageDragenPipeline</title>
<path fill="none" stroke="#888888" stroke-width="2" d="M1013.41,-147.37C1021.52,-146.15 1029.78,-144.91 1037.99,-143.68"/>
<polygon fill="#888888" stroke="#888888" stroke-width="2" points="1038.23,-146.48 1045.73,-142.52 1037.4,-140.94 1038.23,-146.48"/>
</g>
<!-- UploadDataToIca&#45;&gt;ManageDragenPipeline -->
<g id="edge7" class="edge">
<title>UploadDataToIca&#45;&gt;ManageDragenPipeline</title>
<path fill="none" stroke="#888888" stroke-width="2" d="M387.04,-99.59C543.48,-105.79 874.43,-118.9 1038.39,-125.39"/>
<polygon fill="#888888" stroke="#888888" stroke-width="2" points="1037.81,-128.17 1045.92,-125.69 1038.04,-122.57 1037.81,-128.17"/>
</g>
<!-- ManageDragenMlr -->
<g id="node8" class="node">
<title>ManageDragenMlr</title>
<polygon fill="#b3e2cd" stroke="#444444" points="1440.15,-256.4 1267.35,-256.4 1267.35,-206 1440.15,-206 1440.15,-256.4"/>
<text xml:space="preserve" text-anchor="middle" x="1353.75" y="-238.92" font-family="Helvetica,sans-Serif" font-size="12.00">ManageDragenMlr</text>
<text xml:space="preserve" text-anchor="middle" x="1353.75" y="-226.17" font-family="Helvetica,sans-Serif" font-size="12.00">(C)</text>
<text xml:space="preserve" text-anchor="middle" x="1353.75" y="-213.42" font-family="Helvetica,sans-Serif" font-size="12.00">[ICA monitor]</text>
</g>
<!-- ManageDragenPipeline&#45;&gt;ManageDragenMlr -->
<g id="edge8" class="edge">
<title>ManageDragenPipeline&#45;&gt;ManageDragenMlr</title>
<path fill="none" stroke="#888888" stroke-width="2" d="M1178.4,-154.89C1201.41,-168.44 1230.74,-184.78 1258,-197.2 1261.14,-198.63 1264.36,-200.04 1267.63,-201.43"/>
<polygon fill="#888888" stroke="#888888" stroke-width="2" points="1266.29,-203.91 1274.75,-204.37 1268.42,-198.73 1266.29,-203.91"/>
</g>
<!-- DownloadCramFromIca -->
<g id="node9" class="node">
<title>DownloadCramFromIca</title>
<polygon fill="#8da0cb" stroke="#444444" points="1440.15,-188.4 1267.35,-188.4 1267.35,-138 1440.15,-138 1440.15,-188.4"/>
<text xml:space="preserve" text-anchor="middle" x="1353.75" y="-164.55" font-family="Helvetica,sans-Serif" font-size="12.00">DownloadCramFromIca</text>
<text xml:space="preserve" text-anchor="middle" x="1353.75" y="-151.8" font-family="Helvetica,sans-Serif" font-size="12.00">(SG)</text>
</g>
<!-- ManageDragenPipeline&#45;&gt;DownloadCramFromIca -->
<g id="edge9" class="edge">
<title>ManageDragenPipeline&#45;&gt;DownloadCramFromIca</title>
<path fill="none" stroke="#888888" stroke-width="2" d="M1222.34,-142.69C1233.5,-144.44 1245,-146.25 1256.33,-148.03"/>
<polygon fill="#888888" stroke="#888888" stroke-width="2" points="1255.79,-150.78 1264.12,-149.26 1256.66,-145.25 1255.79,-150.78"/>
</g>
<!-- DownloadGvcfFromIca -->
<g id="node10" class="node">
<title>DownloadGvcfFromIca</title>
<polygon fill="#8da0cb" stroke="#444444" points="1440.15,-120.4 1267.35,-120.4 1267.35,-70 1440.15,-70 1440.15,-120.4"/>
<text xml:space="preserve" text-anchor="middle" x="1353.75" y="-96.55" font-family="Helvetica,sans-Serif" font-size="12.00">DownloadGvcfFromIca</text>
<text xml:space="preserve" text-anchor="middle" x="1353.75" y="-83.8" font-family="Helvetica,sans-Serif" font-size="12.00">(SG)</text>
</g>
<!-- ManageDragenPipeline&#45;&gt;DownloadGvcfFromIca -->
<g id="edge10" class="edge">
<title>ManageDragenPipeline&#45;&gt;DownloadGvcfFromIca</title>
<path fill="none" stroke="#888888" stroke-width="2" d="M1222.34,-115.71C1233.5,-113.96 1245,-112.15 1256.33,-110.37"/>
<polygon fill="#888888" stroke="#888888" stroke-width="2" points="1256.66,-113.15 1264.12,-109.14 1255.79,-107.62 1256.66,-113.15"/>
</g>
<!-- DownloadBatchArtefactsFromIca -->
<g id="node13" class="node">
<title>DownloadBatchArtefactsFromIca</title>
<polygon fill="#8da0cb" stroke="#444444" points="1449.5,-50.4 1258,-50.4 1258,0 1449.5,0 1449.5,-50.4"/>
<text xml:space="preserve" text-anchor="middle" x="1353.75" y="-26.55" font-family="Helvetica,sans-Serif" font-size="12.00">DownloadBatchArtefactsFromIca</text>
<text xml:space="preserve" text-anchor="middle" x="1353.75" y="-13.8" font-family="Helvetica,sans-Serif" font-size="12.00">(C)</text>
</g>
<!-- ManageDragenPipeline&#45;&gt;DownloadBatchArtefactsFromIca -->
<g id="edge11" class="edge">
<title>ManageDragenPipeline&#45;&gt;DownloadBatchArtefactsFromIca</title>
<path fill="none" stroke="#888888" stroke-width="2" d="M1178.77,-103.55C1201.76,-90.09 1230.97,-73.82 1258,-61.2 1262.54,-59.08 1267.25,-56.98 1272.03,-54.93"/>
<polygon fill="#888888" stroke="#888888" stroke-width="2" points="1272.81,-57.64 1279.11,-51.97 1270.65,-52.48 1272.81,-57.64"/>
</g>
<!-- DownloadMlrGvcfFromIca -->
<g id="node11" class="node">
<title>DownloadMlrGvcfFromIca</title>
<polygon fill="#8da0cb" stroke="#444444" points="1658.3,-137.4 1485.5,-137.4 1485.5,-87 1658.3,-87 1658.3,-137.4"/>
<text xml:space="preserve" text-anchor="middle" x="1571.9" y="-113.55" font-family="Helvetica,sans-Serif" font-size="12.00">DownloadMlrGvcfFromIca</text>
<text xml:space="preserve" text-anchor="middle" x="1571.9" y="-100.8" font-family="Helvetica,sans-Serif" font-size="12.00">(SG)</text>
</g>
<!-- ManageDragenMlr&#45;&gt;DownloadMlrGvcfFromIca -->
<g id="edge13" class="edge">
<title>ManageDragenMlr&#45;&gt;DownloadMlrGvcfFromIca</title>
<path fill="none" stroke="#888888" stroke-width="2" d="M1431.78,-205.54C1437.86,-202.92 1443.84,-200.13 1449.5,-197.2 1478.14,-182.37 1507.84,-161.68 1530.7,-144.43"/>
<polygon fill="#888888" stroke="#888888" stroke-width="2" points="1532.36,-146.68 1537.02,-139.6 1528.96,-142.24 1532.36,-146.68"/>
</g>
<!-- DownloadDataFromIca -->
<g id="node12" class="node">
<title>DownloadDataFromIca</title>
<polygon fill="#8da0cb" stroke="#444444" points="1867.1,-137.4 1694.3,-137.4 1694.3,-87 1867.1,-87 1867.1,-137.4"/>
<text xml:space="preserve" text-anchor="middle" x="1780.7" y="-113.55" font-family="Helvetica,sans-Serif" font-size="12.00">DownloadDataFromIca</text>
<text xml:space="preserve" text-anchor="middle" x="1780.7" y="-100.8" font-family="Helvetica,sans-Serif" font-size="12.00">(SG)</text>
</g>
<!-- DownloadCramFromIca&#45;&gt;DownloadDataFromIca -->
<g id="edge15" class="edge">
<title>DownloadCramFromIca&#45;&gt;DownloadDataFromIca</title>
<path fill="none" stroke="#888888" stroke-width="2" d="M1440.34,-163.35C1501.45,-162.25 1585.4,-158.3 1658.3,-146.2 1667.56,-144.66 1677.12,-142.69 1686.62,-140.46"/>
<polygon fill="#888888" stroke="#888888" stroke-width="2" points="1687.25,-143.19 1694.36,-138.57 1685.93,-137.75 1687.25,-143.19"/>
</g>
<!-- SomalierExtract -->
<g id="node14" class="node">
<title>SomalierExtract</title>
<polygon fill="#8da0cb" stroke="#444444" points="1658.3,-243.4 1485.5,-243.4 1485.5,-193 1658.3,-193 1658.3,-243.4"/>
<text xml:space="preserve" text-anchor="middle" x="1571.9" y="-219.55" font-family="Helvetica,sans-Serif" font-size="12.00">SomalierExtract</text>
<text xml:space="preserve" text-anchor="middle" x="1571.9" y="-206.8" font-family="Helvetica,sans-Serif" font-size="12.00">(SG)</text>
</g>
<!-- DownloadCramFromIca&#45;&gt;SomalierExtract -->
<g id="edge14" class="edge">
<title>DownloadCramFromIca&#45;&gt;SomalierExtract</title>
<path fill="none" stroke="#888888" stroke-width="2" d="M1440.49,-185.02C1451.77,-187.89 1463.39,-190.84 1474.83,-193.75"/>
<polygon fill="#888888" stroke="#888888" stroke-width="2" points="1473.89,-196.4 1482.33,-195.66 1475.27,-190.98 1473.89,-196.4"/>
</g>
<!-- DownloadGvcfFromIca&#45;&gt;DownloadMlrGvcfFromIca -->
<g id="edge12" class="edge">
<title>DownloadGvcfFromIca&#45;&gt;DownloadMlrGvcfFromIca</title>
<path fill="none" stroke="#888888" stroke-width="2" d="M1440.49,-101.94C1451.65,-102.82 1463.15,-103.73 1474.48,-104.62"/>
<polygon fill="#888888" stroke="#888888" stroke-width="2" points="1474.05,-107.39 1482.25,-105.23 1474.49,-101.81 1474.05,-107.39"/>
</g>
<!-- DownloadGvcfFromIca&#45;&gt;DownloadDataFromIca -->
<g id="edge16" class="edge">
<title>DownloadGvcfFromIca&#45;&gt;DownloadDataFromIca</title>
<path fill="none" stroke="#888888" stroke-width="2" d="M1440.48,-81.66C1501.47,-74.15 1585.22,-68.16 1658.3,-78.2 1668.55,-79.61 1679.14,-81.65 1689.62,-84.06"/>
<polygon fill="#888888" stroke="#888888" stroke-width="2" points="1688.66,-86.7 1697.09,-85.86 1689.97,-81.26 1688.66,-86.7"/>
</g>
<!-- DownloadMlrGvcfFromIca&#45;&gt;DownloadDataFromIca -->
<g id="edge17" class="edge">
<title>DownloadMlrGvcfFromIca&#45;&gt;DownloadDataFromIca</title>
<path fill="none" stroke="#888888" stroke-width="2" d="M1658.51,-112.2C1666.53,-112.2 1674.7,-112.2 1682.81,-112.2"/>
<polygon fill="#888888" stroke="#888888" stroke-width="2" points="1682.8,-115 1690.8,-112.2 1682.8,-109.4 1682.8,-115"/>
</g>
<!-- ReheaderMlrGvcf -->
<g id="node15" class="node">
<title>ReheaderMlrGvcf</title>
<polygon fill="#8da0cb" stroke="#444444" points="2075.9,-137.4 1903.1,-137.4 1903.1,-87 2075.9,-87 2075.9,-137.4"/>
<text xml:space="preserve" text-anchor="middle" x="1989.5" y="-113.55" font-family="Helvetica,sans-Serif" font-size="12.00">ReheaderMlrGvcf</text>
<text xml:space="preserve" text-anchor="middle" x="1989.5" y="-100.8" font-family="Helvetica,sans-Serif" font-size="12.00">(SG)</text>
</g>
<!-- DownloadDataFromIca&#45;&gt;ReheaderMlrGvcf -->
<g id="edge18" class="edge">
<title>DownloadDataFromIca&#45;&gt;ReheaderMlrGvcf</title>
<path fill="none" stroke="#888888" stroke-width="2" d="M1867.31,-112.2C1875.33,-112.2 1883.5,-112.2 1891.61,-112.2"/>
<polygon fill="#888888" stroke="#888888" stroke-width="2" points="1891.6,-115 1899.6,-112.2 1891.6,-109.4 1891.6,-115"/>
</g>
<!-- DownloadBatchArtefactsFromIca&#45;&gt;ReheaderMlrGvcf -->
<g id="edge20" class="edge">
<title>DownloadBatchArtefactsFromIca&#45;&gt;ReheaderMlrGvcf</title>
<path fill="none" stroke="#888888" stroke-width="2" d="M1449.88,-30.19C1553.28,-36.74 1723.03,-50.78 1867.1,-78.2 1875.75,-79.85 1884.69,-81.82 1893.6,-83.97"/>
<polygon fill="#888888" stroke="#888888" stroke-width="2" points="1892.66,-86.62 1901.1,-85.83 1894.01,-81.18 1892.66,-86.62"/>
</g>
<!-- SomalierExtract&#45;&gt;ReheaderMlrGvcf -->
<g id="edge19" class="edge">
<title>SomalierExtract&#45;&gt;ReheaderMlrGvcf</title>
<path fill="none" stroke="#888888" stroke-width="2" d="M1658.7,-197.99C1717.48,-183.96 1797.16,-164.55 1867.1,-146.2 1875.3,-144.05 1883.8,-141.77 1892.32,-139.45"/>
<polygon fill="#888888" stroke="#888888" stroke-width="2" points="1892.81,-142.22 1899.79,-137.41 1891.33,-136.82 1892.81,-142.22"/>
</g>
<!-- DeleteDataInIca -->
<g id="node16" class="node">
<title>DeleteDataInIca</title>
<polygon fill="#fbb4ae" stroke="#444444" stroke-width="3" points="2284.7,-137.4 2111.9,-137.4 2111.9,-87 2284.7,-87 2284.7,-137.4"/>
<text xml:space="preserve" text-anchor="middle" x="2198.3" y="-119.92" font-family="Helvetica,sans-Serif" font-size="12.00">DeleteDataInIca</text>
<text xml:space="preserve" text-anchor="middle" x="2198.3" y="-107.17" font-family="Helvetica,sans-Serif" font-size="12.00">(C)</text>
<text xml:space="preserve" text-anchor="middle" x="2198.3" y="-94.42" font-family="Helvetica,sans-Serif" font-size="12.00">END</text>
</g>
<!-- ReheaderMlrGvcf&#45;&gt;DeleteDataInIca -->
<g id="edge21" class="edge">
<title>ReheaderMlrGvcf&#45;&gt;DeleteDataInIca</title>
<path fill="none" stroke="#888888" stroke-width="2" d="M2076.11,-112.2C2083.81,-112.2 2091.65,-112.2 2099.45,-112.2"/>
<polygon fill="#888888" stroke="#888888" stroke-width="2" points="2099.4,-115 2107.4,-112.2 2099.4,-109.4 2099.4,-115"/>
</g>
</g>
</svg>
