<?xml version="1.0" encoding="UTF-8" standalone="no"?>
<!DOCTYPE svg PUBLIC "-//W3C//DTD SVG 1.1//EN"
 "http://www.w3.org/Graphics/SVG/1.1/DTD/svg11.dtd">
<!-- Generated by graphviz version 15.0.0 (20260523.1842)
 -->
<!-- Title: DragenAlignPAWorkflow Pages: 1 -->
<svg width="2327pt" height="347pt"
 viewBox="0.00 0.00 2327.00 347.00" xmlns="http://www.w3.org/2000/svg" xmlns:xlink="http://www.w3.org/1999/xlink">
<g id="graph0" class="graph" transform="scale(1 1) rotate(0) translate(4 343.2)">
<title>DragenAlignPAWorkflow</title>
<polygon fill="#f9f9f9" stroke="none" points="-4,4 -4,-343.2 2322.95,-343.2 2322.95,4 -4,4"/>
<text xml:space="preserve" text-anchor="middle" x="1159.48" y="-312.4" font-family="Times,serif" font-size="24.00">Dragen Alignment</text>
<g id="clust1" class="cluster">
<title>cluster_pon</title>
<path fill="#f9f9f9" stroke="#984ea3" stroke-dasharray="5,2" d="M20,-8C20,-8 408.05,-8 408.05,-8 414.05,-8 420.05,-14 420.05,-20 420.05,-20 420.05,-84 420.05,-84 420.05,-90 414.05,-96 408.05,-96 408.05,-96 20,-96 20,-96 14,-96 8,-90 8,-84 8,-84 8,-20 8,-20 8,-14 14,-8 20,-8"/>
<text xml:space="preserve" text-anchor="middle" x="214.03" y="-15.05" font-family="Times,serif" font-size="11.00">Panel of Normals (standalone, exome CNV)</text>
</g>
<!-- PrepareIcaForDragenAnalysis -->
<g id="node1" class="node">
<title>PrepareIcaForDragenAnalysis</title>
<polygon fill="#ffffb3" stroke="#444444" stroke-width="3" points="198.12,-168.2 20.12,-168.2 20.12,-117.8 198.12,-117.8 198.12,-168.2"/>
<text xml:space="preserve" text-anchor="middle" x="109.12" y="-150.72" font-family="Helvetica,sans-Serif" font-size="12.00">PrepareIcaForDragenAnalysis</text>
<text xml:space="preserve" text-anchor="middle" x="109.12" y="-137.97" font-family="Helvetica,sans-Serif" font-size="12.00">(C)</text>
<text xml:space="preserve" text-anchor="middle" x="109.12" y="-125.22" font-family="Helvetica,sans-Serif" font-size="12.00">START</text>
</g>
<!-- FastqIntakeQc -->
<g id="node2" class="node">
<title>FastqIntakeQc</title>
<polygon fill="#fc8d62" stroke="#444444" points="412.05,-224.2 239.25,-224.2 239.25,-173.8 412.05,-173.8 412.05,-224.2"/>
<text xml:space="preserve" text-anchor="middle" x="325.65" y="-200.35" font-family="Helvetica,sans-Serif" font-size="12.00">FastqIntakeQc</text>
<text xml:space="preserve" text-anchor="middle" x="325.65" y="-187.6" font-family="Helvetica,sans-Serif" font-size="12.00">(FASTQ, C)</text>
</g>
<!-- PrepareIcaForDragenAnalysis&#45;&gt;FastqIntakeQc -->
<g id="edge2" class="edge">
<title>PrepareIcaForDragenAnalysis&#45;&gt;FastqIntakeQc</title>
<path fill="none" stroke="#888888" stroke-width="2" d="M199.55,-166.34C209.09,-168.83 218.82,-171.38 228.44,-173.88"/>
<polygon fill="#888888" stroke="#888888" stroke-width="2" points="227.43,-176.52 235.88,-175.83 228.85,-171.1 227.43,-176.52"/>
</g>
<!-- UploadDataToIca -->
<g id="node6" class="node">
<title>UploadDataToIca</title>
<polygon fill="#66c2a5" stroke="#444444" points="412.05,-156.2 239.25,-156.2 239.25,-105.8 412.05,-105.8 412.05,-156.2"/>
<text xml:space="preserve" text-anchor="middle" x="325.65" y="-132.35" font-family="Helvetica,sans-Serif" font-size="12.00">UploadDataToIca</text>
<text xml:space="preserve" text-anchor="middle" x="325.65" y="-119.6" font-family="Helvetica,sans-Serif" font-size="12.00">(CRAM, SG)</text>
</g>
<!-- PrepareIcaForDragenAnalysis&#45;&gt;UploadDataToIca -->
<g id="edge3" class="edge">
<title>PrepareIcaForDragenAnalysis&#45;&gt;UploadDataToIca</title>
<path fill="none" stroke="#888888" stroke-width="2" d="M199.55,-138C208.89,-137.48 218.41,-136.94 227.82,-136.42"/>
<polygon fill="#888888" stroke="#888888" stroke-width="2" points="227.96,-139.21 235.79,-135.97 227.64,-133.62 227.96,-139.21"/>
</g>
<!-- DownloadMd5Results -->
<g id="node3" class="node">
<title>DownloadMd5Results</title>
<polygon fill="#fc8d62" stroke="#444444" points="621.85,-220.2 449.05,-220.2 449.05,-169.8 621.85,-169.8 621.85,-220.2"/>
<text xml:space="preserve" text-anchor="middle" x="535.45" y="-196.35" font-family="Helvetica,sans-Serif" font-size="12.00">DownloadMd5Results</text>
<text xml:space="preserve" text-anchor="middle" x="535.45" y="-183.6" font-family="Helvetica,sans-Serif" font-size="12.00">(FASTQ, C)</text>
</g>
<!-- FastqIntakeQc&#45;&gt;DownloadMd5Results -->
<g id="edge4" class="edge">
<title>FastqIntakeQc&#45;&gt;DownloadMd5Results</title>
<path fill="none" stroke="#888888" stroke-width="2" d="M412.37,-197.35C420.69,-197.19 429.17,-197.03 437.58,-196.86"/>
<polygon fill="#888888" stroke="#888888" stroke-width="2" points="437.62,-199.66 445.57,-196.71 437.51,-194.07 437.62,-199.66"/>
</g>
<!-- ValidateMd5Sums -->
<g id="node4" class="node">
<title>ValidateMd5Sums</title>
<polygon fill="#fc8d62" stroke="#444444" points="831.65,-213.2 658.85,-213.2 658.85,-162.8 831.65,-162.8 831.65,-213.2"/>
<text xml:space="preserve" text-anchor="middle" x="745.25" y="-189.35" font-family="Helvetica,sans-Serif" font-size="12.00">ValidateMd5Sums</text>
<text xml:space="preserve" text-anchor="middle" x="745.25" y="-176.6" font-family="Helvetica,sans-Serif" font-size="12.00">(FASTQ, C)</text>
</g>
<!-- DownloadMd5Results&#45;&gt;ValidateMd5Sums -->
<g id="edge5" class="edge">
<title>DownloadMd5Results&#45;&gt;ValidateMd5Sums</title>
<path fill="none" stroke="#888888" stroke-width="2" d="M622.17,-192.11C630.49,-191.83 638.97,-191.55 647.38,-191.26"/>
<polygon fill="#888888" stroke="#888888" stroke-width="2" points="647.47,-194.06 655.37,-190.99 647.28,-188.47 647.47,-194.06"/>
</g>
<!-- MakeFastqFileList -->
<g id="node5" class="node">
<title>MakeFastqFileList</title>
<polygon fill="#fc8d62" stroke="#444444" points="1041.45,-213.2 868.65,-213.2 868.65,-162.8 1041.45,-162.8 1041.45,-213.2"/>
<text xml:space="preserve" text-anchor="middle" x="955.05" y="-189.35" font-family="Helvetica,sans-Serif" font-size="12.00">MakeFastqFileList</text>
<text xml:space="preserve" text-anchor="middle" x="955.05" y="-176.6" font-family="Helvetica,sans-Serif" font-size="12.00">(FASTQ, C)</text>
</g>
<!-- ValidateMd5Sums&#45;&gt;MakeFastqFileList -->
<g id="edge6" class="edge">
<title>ValidateMd5Sums&#45;&gt;MakeFastqFileList</title>
<path fill="none" stroke="#888888" stroke-width="2" d="M831.97,-188C840.29,-188 848.77,-188 857.18,-188"/>
<polygon fill="#888888" stroke="#888888" stroke-width="2" points="857.16,-190.8 865.16,-188 857.16,-185.2 857.16,-190.8"/>
</g>
<!-- ManageDragenPipeline -->
<g id="node7" class="node">
<title>ManageDragenPipeline</title>
<polygon fill="#b3e2cd" stroke="#444444" points="1251.25,-172.2 1078.45,-172.2 1078.45,-121.8 1251.25,-121.8 1251.25,-172.2"/>
<text xml:space="preserve" text-anchor="middle" x="1164.85" y="-154.72" font-family="Helvetica,sans-Serif" font-size="12.00">ManageDragenPipeline</text>
<text xml:space="preserve" text-anchor="middle" x="1164.85" y="-141.97" font-family="Helvetica,sans-Serif" font-size="12.00">(C)</text>
<text xml:space="preserve" text-anchor="middle" x="1164.85" y="-129.22" font-family="Helvetica,sans-Serif" font-size="12.00">[ICA monitor]</text>
</g>
<!-- MakeFastqFileList&#45;&gt;ManageDragenPipeline -->
<g id="edge7" class="edge">
<title>MakeFastqFileList&#45;&gt;ManageDragenPipeline</title>
<path fill="none" stroke="#888888" stroke-width="2" d="M1041.77,-171.09C1050.18,-169.43 1058.76,-167.74 1067.27,-166.06"/>
<polygon fill="#888888" stroke="#888888" stroke-width="2" points="1067.72,-168.82 1075.02,-164.53 1066.63,-163.33 1067.72,-168.82"/>
</g>
<!-- UploadDataToIca&#45;&gt;ManageDragenPipeline -->
<g id="edge8" class="edge">
<title>UploadDataToIca&#45;&gt;ManageDragenPipeline</title>
<path fill="none" stroke="#888888" stroke-width="2" d="M412.33,-133.39C449.81,-134.24 494.31,-135 534.45,-135 534.45,-135 534.45,-135 956.05,-135 992.4,-135 1032.27,-136.85 1067.28,-139.1"/>
<polygon fill="#888888" stroke="#888888" stroke-width="2" points="1066.79,-141.88 1074.96,-139.61 1067.16,-136.29 1066.79,-141.88"/>
</g>
<!-- ManageDragenMlr -->
<g id="node8" class="node">
<title>ManageDragenMlr</title>
<polygon fill="#b3e2cd" stroke="#444444" points="1470.4,-149.2 1297.6,-149.2 1297.6,-98.8 1470.4,-98.8 1470.4,-149.2"/>
<text xml:space="preserve" text-anchor="middle" x="1384" y="-131.72" font-family="Helvetica,sans-Serif" font-size="12.00">ManageDragenMlr</text>
<text xml:space="preserve" text-anchor="middle" x="1384" y="-118.97" font-family="Helvetica,sans-Serif" font-size="12.00">(C)</text>
<text xml:space="preserve" text-anchor="middle" x="1384" y="-106.22" font-family="Helvetica,sans-Serif" font-size="12.00">[ICA monitor]</text>
</g>
<!-- ManageDragenPipeline&#45;&gt;ManageDragenMlr -->
<g id="edge10" class="edge">
<title>ManageDragenPipeline&#45;&gt;ManageDragenMlr</title>
<path fill="none" stroke="#888888" stroke-width="2" d="M1251.67,-137.91C1263.2,-136.69 1275.09,-135.43 1286.78,-134.19"/>
<polygon fill="#888888" stroke="#888888" stroke-width="2" points="1286.77,-137.01 1294.43,-133.38 1286.18,-131.44 1286.77,-137.01"/>
</g>
<!-- DownloadCramFromIca -->
<g id="node9" class="node">
<title>DownloadCramFromIca</title>
<polygon fill="#8da0cb" stroke="#444444" points="1470.4,-285.2 1297.6,-285.2 1297.6,-234.8 1470.4,-234.8 1470.4,-285.2"/>
<text xml:space="preserve" text-anchor="middle" x="1384" y="-261.35" font-family="Helvetica,sans-Serif" font-size="12.00">DownloadCramFromIca</text>
<text xml:space="preserve" text-anchor="middle" x="1384" y="-248.6" font-family="Helvetica,sans-Serif" font-size="12.00">(SG)</text>
</g>
<!-- ManageDragenPipeline&#45;&gt;DownloadCramFromIca -->
<g id="edge11" class="edge">
<title>ManageDragenPipeline&#45;&gt;DownloadCramFromIca</title>
<path fill="none" stroke="#888888" stroke-width="2" d="M1200.73,-172.58C1224.55,-189.26 1257.3,-210.71 1288.25,-226 1291,-227.36 1293.83,-228.69 1296.7,-230"/>
<polygon fill="#888888" stroke="#888888" stroke-width="2" points="1295.37,-232.48 1303.82,-233.11 1297.61,-227.34 1295.37,-232.48"/>
</g>
<!-- DownloadGvcfFromIca -->
<g id="node10" class="node">
<title>DownloadGvcfFromIca</title>
<polygon fill="#8da0cb" stroke="#444444" points="1470.4,-217.2 1297.6,-217.2 1297.6,-166.8 1470.4,-166.8 1470.4,-217.2"/>
<text xml:space="preserve" text-anchor="middle" x="1384" y="-193.35" font-family="Helvetica,sans-Serif" font-size="12.00">DownloadGvcfFromIca</text>
<text xml:space="preserve" text-anchor="middle" x="1384" y="-180.6" font-family="Helvetica,sans-Serif" font-size="12.00">(SG)</text>
</g>
<!-- ManageDragenPipeline&#45;&gt;DownloadGvcfFromIca -->
<g id="edge12" class="edge">
<title>ManageDragenPipeline&#45;&gt;DownloadGvcfFromIca</title>
<path fill="none" stroke="#888888" stroke-width="2" d="M1251.67,-164.79C1263.2,-167.17 1275.09,-169.64 1286.78,-172.06"/>
<polygon fill="#888888" stroke="#888888" stroke-width="2" points="1286.08,-174.77 1294.48,-173.66 1287.21,-169.29 1286.08,-174.77"/>
</g>
<!-- DownloadBatchArtefactsFromIca -->
<g id="node13" class="node">
<title>DownloadBatchArtefactsFromIca</title>
<polygon fill="#8da0cb" stroke="#444444" points="1479.75,-81.2 1288.25,-81.2 1288.25,-30.8 1479.75,-30.8 1479.75,-81.2"/>
<text xml:space="preserve" text-anchor="middle" x="1384" y="-57.35" font-family="Helvetica,sans-Serif" font-size="12.00">DownloadBatchArtefactsFromIca</text>
<text xml:space="preserve" text-anchor="middle" x="1384" y="-44.6" font-family="Helvetica,sans-Serif" font-size="12.00">(C)</text>
</g>
<!-- ManageDragenPipeline&#45;&gt;DownloadBatchArtefactsFromIca -->
<g id="edge13" class="edge">
<title>ManageDragenPipeline&#45;&gt;DownloadBatchArtefactsFromIca</title>
<path fill="none" stroke="#888888" stroke-width="2" d="M1218.1,-121.39C1239.63,-111.17 1264.94,-99.58 1288.25,-90 1291.9,-88.5 1295.64,-87 1299.43,-85.51"/>
<polygon fill="#888888" stroke="#888888" stroke-width="2" points="1300.27,-88.19 1306.73,-82.7 1298.26,-82.96 1300.27,-88.19"/>
</g>
<!-- DownloadMlrGvcfFromIca -->
<g id="node11" class="node">
<title>DownloadMlrGvcfFromIca</title>
<polygon fill="#8da0cb" stroke="#444444" points="1689.55,-160.2 1516.75,-160.2 1516.75,-109.8 1689.55,-109.8 1689.55,-160.2"/>
<text xml:space="preserve" text-anchor="middle" x="1603.15" y="-136.35" font-family="Helvetica,sans-Serif" font-size="12.00">DownloadMlrGvcfFromIca</text>
<text xml:space="preserve" text-anchor="middle" x="1603.15" y="-123.6" font-family="Helvetica,sans-Serif" font-size="12.00">(SG)</text>
</g>
<!-- ManageDragenMlr&#45;&gt;DownloadMlrGvcfFromIca -->
<g id="edge15" class="edge">
<title>ManageDragenMlr&#45;&gt;DownloadMlrGvcfFromIca</title>
<path fill="none" stroke="#888888" stroke-width="2" d="M1470.82,-128.35C1482.35,-128.93 1494.24,-129.53 1505.93,-130.13"/>
<polygon fill="#888888" stroke="#888888" stroke-width="2" points="1505.44,-132.9 1513.57,-130.51 1505.72,-127.31 1505.44,-132.9"/>
</g>
<!-- DownloadDataFromIca -->
<g id="node12" class="node">
<title>DownloadDataFromIca</title>
<polygon fill="#8da0cb" stroke="#444444" points="1899.35,-213.2 1726.55,-213.2 1726.55,-162.8 1899.35,-162.8 1899.35,-213.2"/>
<text xml:space="preserve" text-anchor="middle" x="1812.95" y="-189.35" font-family="Helvetica,sans-Serif" font-size="12.00">DownloadDataFromIca</text>
<text xml:space="preserve" text-anchor="middle" x="1812.95" y="-176.6" font-family="Helvetica,sans-Serif" font-size="12.00">(SG)</text>
</g>
<!-- DownloadCramFromIca&#45;&gt;DownloadDataFromIca -->
<g id="edge17" class="edge">
<title>DownloadCramFromIca&#45;&gt;DownloadDataFromIca</title>
<path fill="none" stroke="#888888" stroke-width="2" d="M1470.89,-245.52C1541.67,-233.58 1642.03,-216.66 1715.55,-204.26"/>
<polygon fill="#888888" stroke="#888888" stroke-width="2" points="1715.79,-207.06 1723.22,-202.96 1714.86,-201.53 1715.79,-207.06"/>
</g>
<!-- SomalierExtract -->
<g id="node14" class="node">
<title>SomalierExtract</title>
<polygon fill="#8da0cb" stroke="#444444" points="1689.55,-304.2 1516.75,-304.2 1516.75,-253.8 1689.55,-253.8 1689.55,-304.2"/>
<text xml:space="preserve" text-anchor="middle" x="1603.15" y="-280.35" font-family="Helvetica,sans-Serif" font-size="12.00">SomalierExtract</text>
<text xml:space="preserve" text-anchor="middle" x="1603.15" y="-267.6" font-family="Helvetica,sans-Serif" font-size="12.00">(SG)</text>
</g>
<!-- DownloadCramFromIca&#45;&gt;SomalierExtract -->
<g id="edge16" class="edge">
<title>DownloadCramFromIca&#45;&gt;SomalierExtract</title>
<path fill="none" stroke="#888888" stroke-width="2" d="M1470.82,-267.51C1482.35,-268.52 1494.24,-269.56 1505.93,-270.58"/>
<polygon fill="#888888" stroke="#888888" stroke-width="2" points="1505.37,-273.34 1513.58,-271.25 1505.85,-267.76 1505.37,-273.34"/>
</g>
<!-- DownloadGvcfFromIca&#45;&gt;DownloadMlrGvcfFromIca -->
<g id="edge14" class="edge">
<title>DownloadGvcfFromIca&#45;&gt;DownloadMlrGvcfFromIca</title>
<path fill="none" stroke="#888888" stroke-width="2" d="M1470.82,-169.47C1482.47,-166.42 1494.48,-163.26 1506.29,-160.16"/>
<polygon fill="#888888" stroke="#888888" stroke-width="2" points="1506.64,-162.97 1513.67,-158.23 1505.22,-157.55 1506.64,-162.97"/>
</g>
<!-- DownloadGvcfFromIca&#45;&gt;DownloadDataFromIca -->
<g id="edge18" class="edge">
<title>DownloadGvcfFromIca&#45;&gt;DownloadDataFromIca</title>
<path fill="none" stroke="#888888" stroke-width="2" d="M1470.89,-191.2C1541.67,-190.53 1642.03,-189.59 1715.55,-188.9"/>
<polygon fill="#888888" stroke="#888888" stroke-width="2" points="1715.2,-191.71 1723.17,-188.83 1715.15,-186.11 1715.2,-191.71"/>
</g>
<!-- DownloadMlrGvcfFromIca&#45;&gt;DownloadDataFromIca -->
<g id="edge19" class="edge">
<title>DownloadMlrGvcfFromIca&#45;&gt;DownloadDataFromIca</title>
<path fill="none" stroke="#888888" stroke-width="2" d="M1689.87,-156.86C1698.37,-159.03 1707.05,-161.24 1715.65,-163.44"/>
<polygon fill="#888888" stroke="#888888" stroke-width="2" points="1714.71,-166.09 1723.16,-165.35 1716.1,-160.66 1714.71,-166.09"/>
</g>
<!-- ReheaderMlrGvcf -->
<g id="node15" class="node">
<title>ReheaderMlrGvcf</title>
<polygon fill="#8da0cb" stroke="#444444" points="2109.15,-213.2 1936.35,-213.2 1936.35,-162.8 2109.15,-162.8 2109.15,-213.2"/>
<text xml:space="preserve" text-anchor="middle" x="2022.75" y="-189.35" font-family="Helvetica,sans-Serif" font-size="12.00">ReheaderMlrGvcf</text>
<text xml:space="preserve" text-anchor="middle" x="2022.75" y="-176.6" font-family="Helvetica,sans-Serif" font-size="12.00">(SG)</text>
</g>
<!-- DownloadDataFromIca&#45;&gt;ReheaderMlrGvcf -->
<g id="edge20" class="edge">
<title>DownloadDataFromIca&#45;&gt;ReheaderMlrGvcf</title>
<path fill="none" stroke="#888888" stroke-width="2" d="M1899.67,-188C1907.99,-188 1916.47,-188 1924.88,-188"/>
<polygon fill="#888888" stroke="#888888" stroke-width="2" points="1924.86,-190.8 1932.86,-188 1924.86,-185.2 1924.86,-190.8"/>
</g>
<!-- DownloadBatchArtefactsFromIca&#45;&gt;ReheaderMlrGvcf -->
<g id="edge22" class="edge">
<title>DownloadBatchArtefactsFromIca&#45;&gt;ReheaderMlrGvcf</title>
<path fill="none" stroke="#888888" stroke-width="2" d="M1480.08,-67.54C1540.36,-75.48 1619.84,-87.08 1689.55,-101 1783.86,-119.83 1806.39,-129.35 1899.35,-154 1907.85,-156.25 1916.68,-158.63 1925.52,-161.04"/>
<polygon fill="#888888" stroke="#888888" stroke-width="2" points="1924.51,-163.67 1932.97,-163.08 1925.99,-158.27 1924.51,-163.67"/>
</g>
<!-- SomalierExtract&#45;&gt;ReheaderMlrGvcf -->
<g id="edge21" class="edge">
<title>SomalierExtract&#45;&gt;ReheaderMlrGvcf</title>
<path fill="none" stroke="#888888" stroke-width="2" d="M1689.79,-264.34C1748.93,-253.76 1829.23,-238.48 1899.35,-222 1907.91,-219.99 1916.78,-217.78 1925.65,-215.48"/>
<polygon fill="#888888" stroke="#888888" stroke-width="2" points="1926.09,-218.26 1933.11,-213.51 1924.67,-212.84 1926.09,-218.26"/>
</g>
<!-- DeleteDataInIca -->
<g id="node16" class="node">
<title>DeleteDataInIca</title>
<polygon fill="#fbb4ae" stroke="#444444" stroke-width="3" points="2318.95,-213.2 2146.15,-213.2 2146.15,-162.8 2318.95,-162.8 2318.95,-213.2"/>
<text xml:space="preserve" text-anchor="middle" x="2232.55" y="-195.72" font-family="Helvetica,sans-Serif" font-size="12.00">DeleteDataInIca</text>
<text xml:space="preserve" text-anchor="middle" x="2232.55" y="-182.97" font-family="Helvetica,sans-Serif" font-size="12.00">(C)</text>
<text xml:space="preserve" text-anchor="middle" x="2232.55" y="-170.22" font-family="Helvetica,sans-Serif" font-size="12.00">END</text>
</g>
<!-- ReheaderMlrGvcf&#45;&gt;DeleteDataInIca -->
<g id="edge23" class="edge">
<title>ReheaderMlrGvcf&#45;&gt;DeleteDataInIca</title>
<path fill="none" stroke="#888888" stroke-width="2" d="M2109.47,-188C2117.46,-188 2125.61,-188 2133.7,-188"/>
<polygon fill="#888888" stroke="#888888" stroke-width="2" points="2133.66,-190.8 2141.66,-188 2133.66,-185.2 2133.66,-190.8"/>
</g>
<!-- BuildPon -->
<g id="node17" class="node">
<title>BuildPon</title>
<polygon fill="#decbe4" stroke="#444444" stroke-dasharray="5,2" points="202.25,-88.2 16,-88.2 16,-37.8 202.25,-37.8 202.25,-88.2"/>
<text xml:space="preserve" text-anchor="middle" x="109.12" y="-64.35" font-family="Helvetica,sans-Serif" font-size="12.00">build_cnv_panel_of_normals.py</text>
<text xml:space="preserve" text-anchor="middle" x="109.12" y="-51.6" font-family="Helvetica,sans-Serif" font-size="12.00">(standalone script)</text>
</g>
<!-- PonPanel -->
<g id="node18" class="node">
<title>PonPanel</title>
<path fill="#decbe4" stroke="#444444" d="M412.05,-83.62C412.05,-86.15 373.32,-88.2 325.65,-88.2 277.98,-88.2 239.25,-86.15 239.25,-83.62 239.25,-83.62 239.25,-42.38 239.25,-42.38 239.25,-39.85 277.98,-37.8 325.65,-37.8 373.32,-37.8 412.05,-39.85 412.05,-42.38 412.05,-42.38 412.05,-83.62 412.05,-83.62"/>
<path fill="none" stroke="#444444" d="M412.05,-83.62C412.05,-81.09 373.32,-79.04 325.65,-79.04 277.98,-79.04 239.25,-81.09 239.25,-83.62"/>
<text xml:space="preserve" text-anchor="middle" x="325.65" y="-64.35" font-family="Helvetica,sans-Serif" font-size="12.00">PoN: per&#45;sample counts</text>
<text xml:space="preserve" text-anchor="middle" x="325.65" y="-51.6" font-family="Helvetica,sans-Serif" font-size="12.00">+ normals.txt (ICA reference)</text>
</g>
<!-- BuildPon&#45;&gt;PonPanel -->
<g id="edge1" class="edge">
<title>BuildPon&#45;&gt;PonPanel</title>
<path fill="none" stroke="#984ea3" stroke-width="2" d="M202.66,-63C211.02,-63 219.5,-63 227.89,-63"/>
<polygon fill="#984ea3" stroke="#984ea3" stroke-width="2" points="227.83,-65.8 235.83,-63 227.83,-60.2 227.83,-65.8"/>
</g>
<!-- PonPanel&#45;&gt;ManageDragenPipeline -->
<g id="edge9" class="edge">
<title>PonPanel&#45;&gt;ManageDragenPipeline</title>
<path fill="none" stroke="#984ea3" stroke-width="2" stroke-dasharray="5,2" d="M412.19,-64.46C512.8,-66.82 684.74,-72.85 831.65,-88 925.54,-97.68 948.63,-103.85 1041.45,-121 1049.88,-122.56 1058.62,-124.25 1067.37,-126"/>
<polygon fill="#984ea3" stroke="#984ea3" stroke-width="2" points="1066.67,-128.72 1075.07,-127.56 1067.78,-123.23 1066.67,-128.72"/>
<text xml:space="preserve" text-anchor="middle" x="745.25" y="-107.7" font-family="Times,serif" font-size="14.00">exome CNV</text>
<text xml:space="preserve" text-anchor="middle" x="745.25" y="-91.2" font-family="Times,serif" font-size="14.00">&#45;&#45;cnv&#45;normals&#45;list</text>
</g>
</g>
</svg>
